<?xml version="1.0" encoding="iso-8859-1"?>
<!-- Generator: Adobe Illustrator 19.0.0, SVG Export Plug-In . SVG Version: 6.00 Build 0)  -->
<svg version="1.1" id="Capa_1" xmlns="http://www.w3.org/2000/svg" xmlns:xlink="http://www.w3.org/1999/xlink" x="0px" y="0px"
	 viewBox="0 0 469.333 469.333" style="enable-background:new 0 0 469.333 469.333;" xml:space="preserve">
<g>
	<g>
		<g>
			<path d="M401.781,0c-21.156,0-41.365,10.104-54.24,27.292l-78.906,112.302c-8.417,11.24-26.771,12.542-36.677,2.615
				l-22.167-22.167c-8.625-8.625-20.094-13.375-32.292-13.375h-3c-12.198,0-23.667,4.75-32.292,13.375l-32.417,32.417
				c-4.167,4.167-4.167,10.917,0,15.083l192,192c2.083,2.083,4.813,3.125,7.542,3.125c2.729,0,5.458-1.042,7.542-3.125
				l32.417-32.417c8.625-8.625,13.375-20.094,13.375-32.292v-3c0-12.198-4.75-23.667-13.375-32.292l-22.167-22.167
				c-4.531-4.531-7.125-10.802-7.125-17.208c0-7.615,3.635-14.896,9.469-19.271l112.833-79.302
				c16.927-12.677,27.031-32.885,27.031-54.042C469.333,30.302,439.031,0,401.781,0z M405.333,85.333
				C393.573,85.333,384,75.76,384,64c0-11.76,9.573-21.333,21.333-21.333S426.667,52.24,426.667,64
				C426.667,75.76,417.094,85.333,405.333,85.333z"/>
			<path d="M104.083,192c-4.167-4.167-10.917-4.167-15.083,0l-76.5,76.5C4.437,276.562,0,287.271,0,298.667
				s4.438,22.104,12.5,30.167l16.385,16.396c3.354,3.365,8.573,4.104,12.719,1.781l37.604-20.885l-20.885,37.604
				c-2.313,4.156-1.583,9.354,1.781,12.719l80.396,80.385c8.063,8.063,18.771,12.5,30.167,12.5s22.104-4.438,30.167-12.5l76.5-76.5
				c4.167-4.167,4.167-10.917,0-15.083L104.083,192z"/>
		</g>
	</g>
</g>
<g>
</g>
<g>
</g>
<g>
</g>
<g>
</g>
<g>
</g>
<g>
</g>
<g>
</g>
<g>
</g>
<g>
</g>
<g>
</g>
<g>
</g>
<g>
</g>
<g>
</g>
<g>
</g>
<g>
</g>
</svg>
