<svg id="bold" enable-background="new 0 0 24 24" height="512" viewBox="0 0 24 24" width="512" xmlns="http://www.w3.org/2000/svg"><path d="m23.5 6.166-5.656-5.656c-.658-.658-1.817-.658-2.475 0l-14.849 14.849c-.332.332-.516.771-.509 1.245 0 .467.184.905.509 1.23l5.657 5.657c.332.332.771.516 1.237.516.467 0 .905-.184 1.237-.516l.53-.53-3.359-3.359c-.29-.29-.297-.764 0-1.061.29-.29.771-.29 1.061 0l3.359 3.359 1.061-1.061-1.945-1.945c-.29-.29-.297-.764 0-1.061.29-.29.771-.29 1.061 0l1.945 1.945 1.061-1.061-1.945-1.945c-.29-.29-.297-.764 0-1.061.29-.29.771-.29 1.061 0l1.945 1.945 1.061-1.061-3.359-3.359c-.29-.29-.297-.764 0-1.061.29-.29.771-.29 1.061 0l3.359 3.359 1.061-1.061-1.945-1.945c-.29-.29-.297-.764 0-1.061.29-.29.771-.29 1.061 0l1.945 1.945 1.061-1.061-1.945-1.945c-.29-.29-.297-.764 0-1.061.29-.29.771-.29 1.061 0l1.945 1.945 1.061-1.061-3.359-3.359c-.29-.29-.297-.764 0-1.061.29-.29.771-.29 1.061 0l3.359 3.359.53-.53c.325-.325.509-.764.509-1.23s-.18-.909-.513-1.242z"/></svg>